<svg width="216" height="23" viewBox="0 0 216 23" fill="none" xmlns="http://www.w3.org/2000/svg">
<g clip-path="url(#clip0_1_8)">
<path fill-rule="evenodd" clip-rule="evenodd" d="M1.33333 4.83333H5.7778V9.2778H10.2222V13.7222H14.6667V18.1667H1.33333V4.83333V4.83333Z" fill="#1C1C21"/>
</g>
<path d="M33.188 19.25V6.65H41.288V8.81H35.564V11.816H40.784V13.976H35.564V17.09H41.396V19.25H33.188ZM42.9631 19.25V6.65H45.2311V19.25H42.9631ZM51.5624 19.502C50.6744 19.502 49.8884 19.316 49.2044 18.944C48.5324 18.56 48.0044 18.026 47.6204 17.342C47.2484 16.646 47.0624 15.83 47.0624 14.894V14.678C47.0624 13.742 47.2484 12.932 47.6204 12.248C47.9924 11.552 48.5144 11.018 49.1864 10.646C49.8584 10.262 50.6384 10.07 51.5264 10.07C52.4024 10.07 53.1644 10.268 53.8124 10.664C54.4604 11.048 54.9644 11.588 55.3244 12.284C55.6844 12.968 55.8644 13.766 55.8644 14.678V15.452H49.3664C49.3904 16.064 49.6184 16.562 50.0504 16.946C50.4824 17.33 51.0104 17.522 51.6344 17.522C52.2704 17.522 52.7384 17.384 53.0384 17.108C53.3384 16.832 53.5664 16.526 53.7224 16.19L55.5764 17.162C55.4084 17.474 55.1624 17.816 54.8384 18.188C54.5264 18.548 54.1064 18.86 53.5784 19.124C53.0504 19.376 52.3784 19.502 51.5624 19.502ZM49.3844 13.76H53.5604C53.5124 13.244 53.3024 12.83 52.9304 12.518C52.5704 12.206 52.0964 12.05 51.5084 12.05C50.8964 12.05 50.4104 12.206 50.0504 12.518C49.6904 12.83 49.4684 13.244 49.3844 13.76ZM61.8134 19.502C60.9494 19.502 60.1634 19.322 59.4554 18.962C58.7594 18.602 58.2074 18.08 57.7994 17.396C57.3914 16.712 57.1874 15.884 57.1874 14.912V14.66C57.1874 13.688 57.3914 12.86 57.7994 12.176C58.2074 11.492 58.7594 10.97 59.4554 10.61C60.1634 10.25 60.9494 10.07 61.8134 10.07C62.6654 10.07 63.3974 10.22 64.0094 10.52C64.6214 10.82 65.1134 11.234 65.4854 11.762C65.8694 12.278 66.1214 12.866 66.2414 13.526L64.0454 13.994C63.9974 13.634 63.8894 13.31 63.7214 13.022C63.5534 12.734 63.3134 12.506 63.0014 12.338C62.7014 12.17 62.3234 12.086 61.8674 12.086C61.4114 12.086 60.9974 12.188 60.6254 12.392C60.2654 12.584 59.9774 12.878 59.7614 13.274C59.5574 13.658 59.4554 14.132 59.4554 14.696V14.876C59.4554 15.44 59.5574 15.92 59.7614 16.316C59.9774 16.7 60.2654 16.994 60.6254 17.198C60.9974 17.39 61.4114 17.486 61.8674 17.486C62.5514 17.486 63.0674 17.312 63.4154 16.964C63.7754 16.604 64.0034 16.136 64.0994 15.56L66.2954 16.082C66.1394 16.718 65.8694 17.3 65.4854 17.828C65.1134 18.344 64.6214 18.752 64.0094 19.052C63.3974 19.352 62.6654 19.502 61.8134 19.502ZM71.0394 19.25C70.4514 19.25 69.9714 19.07 69.5994 18.71C69.2394 18.338 69.0594 17.846 69.0594 17.234V12.194H66.8274V10.322H69.0594V7.55H71.3274V10.322H73.7754V12.194H71.3274V16.838C71.3274 17.198 71.4954 17.378 71.8314 17.378H73.5594V19.25H71.0394ZM75.5725 19.25V10.322H77.8045V11.33H78.1285C78.2605 10.97 78.4765 10.706 78.7765 10.538C79.0885 10.37 79.4485 10.286 79.8565 10.286H80.9365V12.302H79.8205C79.2445 12.302 78.7705 12.458 78.3985 12.77C78.0265 13.07 77.8405 13.538 77.8405 14.174V19.25H75.5725ZM82.4319 19.25V10.322H84.6999V19.25H82.4319ZM83.5659 9.278C83.1579 9.278 82.8099 9.146 82.5219 8.882C82.2459 8.618 82.1079 8.27 82.1079 7.838C82.1079 7.406 82.2459 7.058 82.5219 6.794C82.8099 6.53 83.1579 6.398 83.5659 6.398C83.9859 6.398 84.3339 6.53 84.6099 6.794C84.8859 7.058 85.0239 7.406 85.0239 7.838C85.0239 8.27 84.8859 8.618 84.6099 8.882C84.3339 9.146 83.9859 9.278 83.5659 9.278ZM91.1571 19.502C90.2931 19.502 89.5071 19.322 88.7991 18.962C88.1031 18.602 87.5511 18.08 87.1431 17.396C86.7351 16.712 86.5311 15.884 86.5311 14.912V14.66C86.5311 13.688 86.7351 12.86 87.1431 12.176C87.5511 11.492 88.1031 10.97 88.7991 10.61C89.5071 10.25 90.2931 10.07 91.1571 10.07C92.0091 10.07 92.7411 10.22 93.3531 10.52C93.9651 10.82 94.4571 11.234 94.8291 11.762C95.2131 12.278 95.4651 12.866 95.5851 13.526L93.3891 13.994C93.3411 13.634 93.2331 13.31 93.0651 13.022C92.8971 12.734 92.6571 12.506 92.3451 12.338C92.0451 12.17 91.6671 12.086 91.2111 12.086C90.7551 12.086 90.3411 12.188 89.9691 12.392C89.6091 12.584 89.3211 12.878 89.1051 13.274C88.9011 13.658 88.7991 14.132 88.7991 14.696V14.876C88.7991 15.44 88.9011 15.92 89.1051 16.316C89.3211 16.7 89.6091 16.994 89.9691 17.198C90.3411 17.39 90.7551 17.486 91.2111 17.486C91.8951 17.486 92.4111 17.312 92.7591 16.964C93.1191 16.604 93.3471 16.136 93.4431 15.56L95.6391 16.082C95.4831 16.718 95.2131 17.3 94.8291 17.828C94.4571 18.344 93.9651 18.752 93.3531 19.052C92.7411 19.352 92.0091 19.502 91.1571 19.502ZM100.016 19.502C99.3804 19.502 98.8104 19.394 98.3064 19.178C97.8024 18.95 97.4004 18.626 97.1004 18.206C96.8124 17.774 96.6684 17.252 96.6684 16.64C96.6684 16.028 96.8124 15.518 97.1004 15.11C97.4004 14.69 97.8084 14.378 98.3244 14.174C98.8524 13.958 99.4524 13.85 100.124 13.85H102.572V13.346C102.572 12.926 102.44 12.584 102.176 12.32C101.912 12.044 101.492 11.906 100.916 11.906C100.352 11.906 99.9324 12.038 99.6564 12.302C99.3804 12.554 99.2004 12.884 99.1164 13.292L97.0284 12.59C97.1724 12.134 97.4004 11.72 97.7124 11.348C98.0364 10.964 98.4624 10.658 98.9904 10.43C99.5304 10.19 100.184 10.07 100.952 10.07C102.128 10.07 103.058 10.364 103.742 10.952C104.426 11.54 104.768 12.392 104.768 13.508V16.838C104.768 17.198 104.936 17.378 105.272 17.378H105.992V19.25H104.48C104.036 19.25 103.67 19.142 103.382 18.926C103.094 18.71 102.95 18.422 102.95 18.062V18.044H102.608C102.56 18.188 102.452 18.38 102.284 18.62C102.116 18.848 101.852 19.052 101.492 19.232C101.132 19.412 100.64 19.502 100.016 19.502ZM100.412 17.666C101.048 17.666 101.564 17.492 101.96 17.144C102.368 16.784 102.572 16.31 102.572 15.722V15.542H100.286C99.8664 15.542 99.5364 15.632 99.2964 15.812C99.0564 15.992 98.9364 16.244 98.9364 16.568C98.9364 16.892 99.0624 17.156 99.3144 17.36C99.5664 17.564 99.9324 17.666 100.412 17.666ZM107.385 19.25V6.65H109.653V19.25H107.385ZM116.157 19.25V6.65H124.257V8.81H118.533V11.816H123.753V13.976H118.533V17.09H124.365V19.25H116.157ZM125.932 19.25V10.322H128.164V11.492H128.488C128.632 11.18 128.902 10.886 129.298 10.61C129.694 10.322 130.294 10.178 131.098 10.178C131.794 10.178 132.4 10.34 132.916 10.664C133.444 10.976 133.852 11.414 134.14 11.978C134.428 12.53 134.572 13.178 134.572 13.922V19.25H132.304V14.102C132.304 13.43 132.136 12.926 131.8 12.59C131.476 12.254 131.008 12.086 130.396 12.086C129.7 12.086 129.16 12.32 128.776 12.788C128.392 13.244 128.2 13.886 128.2 14.714V19.25H125.932ZM136.328 14.822V14.534C136.328 13.598 136.514 12.8 136.886 12.14C137.258 11.468 137.75 10.958 138.362 10.61C138.986 10.25 139.664 10.07 140.396 10.07C141.212 10.07 141.83 10.214 142.25 10.502C142.67 10.79 142.976 11.09 143.168 11.402H143.492V10.322H145.724V20.834C145.724 21.446 145.544 21.932 145.184 22.292C144.824 22.664 144.344 22.85 143.744 22.85H137.768V20.87H142.952C143.288 20.87 143.456 20.69 143.456 20.33V18.008H143.132C143.012 18.2 142.844 18.398 142.628 18.602C142.412 18.794 142.124 18.956 141.764 19.088C141.404 19.22 140.948 19.286 140.396 19.286C139.664 19.286 138.986 19.112 138.362 18.764C137.75 18.404 137.258 17.894 136.886 17.234C136.514 16.562 136.328 15.758 136.328 14.822ZM141.044 17.306C141.74 17.306 142.322 17.084 142.79 16.64C143.258 16.196 143.492 15.572 143.492 14.768V14.588C143.492 13.772 143.258 13.148 142.79 12.716C142.334 12.272 141.752 12.05 141.044 12.05C140.348 12.05 139.766 12.272 139.298 12.716C138.83 13.148 138.596 13.772 138.596 14.588V14.768C138.596 15.572 138.83 16.196 139.298 16.64C139.766 17.084 140.348 17.306 141.044 17.306ZM147.979 19.25V10.322H150.247V19.25H147.979ZM149.113 9.278C148.705 9.278 148.357 9.146 148.069 8.882C147.793 8.618 147.655 8.27 147.655 7.838C147.655 7.406 147.793 7.058 148.069 6.794C148.357 6.53 148.705 6.398 149.113 6.398C149.533 6.398 149.881 6.53 150.157 6.794C150.433 7.058 150.571 7.406 150.571 7.838C150.571 8.27 150.433 8.618 150.157 8.882C149.881 9.146 149.533 9.278 149.113 9.278ZM152.51 19.25V10.322H154.742V11.492H155.066C155.21 11.18 155.48 10.886 155.876 10.61C156.272 10.322 156.872 10.178 157.676 10.178C158.372 10.178 158.978 10.34 159.494 10.664C160.022 10.976 160.43 11.414 160.718 11.978C161.006 12.53 161.15 13.178 161.15 13.922V19.25H158.882V14.102C158.882 13.43 158.714 12.926 158.378 12.59C158.054 12.254 157.586 12.086 156.974 12.086C156.278 12.086 155.738 12.32 155.354 12.788C154.97 13.244 154.778 13.886 154.778 14.714V19.25H152.51ZM167.406 19.502C166.518 19.502 165.732 19.316 165.048 18.944C164.376 18.56 163.848 18.026 163.464 17.342C163.092 16.646 162.906 15.83 162.906 14.894V14.678C162.906 13.742 163.092 12.932 163.464 12.248C163.836 11.552 164.358 11.018 165.03 10.646C165.702 10.262 166.482 10.07 167.37 10.07C168.246 10.07 169.008 10.268 169.656 10.664C170.304 11.048 170.808 11.588 171.168 12.284C171.528 12.968 171.708 13.766 171.708 14.678V15.452H165.21C165.234 16.064 165.462 16.562 165.894 16.946C166.326 17.33 166.854 17.522 167.478 17.522C168.114 17.522 168.582 17.384 168.882 17.108C169.182 16.832 169.41 16.526 169.566 16.19L171.42 17.162C171.252 17.474 171.006 17.816 170.682 18.188C170.37 18.548 169.95 18.86 169.422 19.124C168.894 19.376 168.222 19.502 167.406 19.502ZM165.228 13.76H169.404C169.356 13.244 169.146 12.83 168.774 12.518C168.414 12.206 167.94 12.05 167.352 12.05C166.74 12.05 166.254 12.206 165.894 12.518C165.534 12.83 165.312 13.244 165.228 13.76ZM177.531 19.502C176.643 19.502 175.857 19.316 175.173 18.944C174.501 18.56 173.973 18.026 173.589 17.342C173.217 16.646 173.031 15.83 173.031 14.894V14.678C173.031 13.742 173.217 12.932 173.589 12.248C173.961 11.552 174.483 11.018 175.155 10.646C175.827 10.262 176.607 10.07 177.495 10.07C178.371 10.07 179.133 10.268 179.781 10.664C180.429 11.048 180.933 11.588 181.293 12.284C181.653 12.968 181.833 13.766 181.833 14.678V15.452H175.335C175.359 16.064 175.587 16.562 176.019 16.946C176.451 17.33 176.979 17.522 177.603 17.522C178.239 17.522 178.707 17.384 179.007 17.108C179.307 16.832 179.535 16.526 179.691 16.19L181.545 17.162C181.377 17.474 181.131 17.816 180.807 18.188C180.495 18.548 180.075 18.86 179.547 19.124C179.019 19.376 178.347 19.502 177.531 19.502ZM175.353 13.76H179.529C179.481 13.244 179.271 12.83 178.899 12.518C178.539 12.206 178.065 12.05 177.477 12.05C176.865 12.05 176.379 12.206 176.019 12.518C175.659 12.83 175.437 13.244 175.353 13.76ZM183.588 19.25V10.322H185.82V11.33H186.144C186.276 10.97 186.492 10.706 186.792 10.538C187.104 10.37 187.464 10.286 187.872 10.286H188.952V12.302H187.836C187.26 12.302 186.786 12.458 186.414 12.77C186.042 13.07 185.856 13.538 185.856 14.174V19.25H183.588ZM190.448 19.25V10.322H192.716V19.25H190.448ZM191.582 9.278C191.174 9.278 190.826 9.146 190.538 8.882C190.262 8.618 190.124 8.27 190.124 7.838C190.124 7.406 190.262 7.058 190.538 6.794C190.826 6.53 191.174 6.398 191.582 6.398C192.002 6.398 192.35 6.53 192.626 6.794C192.902 7.058 193.04 7.406 193.04 7.838C193.04 8.27 192.902 8.618 192.626 8.882C192.35 9.146 192.002 9.278 191.582 9.278ZM194.979 19.25V10.322H197.211V11.492H197.535C197.679 11.18 197.949 10.886 198.345 10.61C198.741 10.322 199.341 10.178 200.145 10.178C200.841 10.178 201.447 10.34 201.963 10.664C202.491 10.976 202.899 11.414 203.187 11.978C203.475 12.53 203.619 13.178 203.619 13.922V19.25H201.351V14.102C201.351 13.43 201.183 12.926 200.847 12.59C200.523 12.254 200.055 12.086 199.443 12.086C198.747 12.086 198.207 12.32 197.823 12.788C197.439 13.244 197.247 13.886 197.247 14.714V19.25H194.979ZM205.375 14.822V14.534C205.375 13.598 205.561 12.8 205.933 12.14C206.305 11.468 206.797 10.958 207.409 10.61C208.033 10.25 208.711 10.07 209.443 10.07C210.259 10.07 210.877 10.214 211.297 10.502C211.717 10.79 212.023 11.09 212.215 11.402H212.539V10.322H214.771V20.834C214.771 21.446 214.591 21.932 214.231 22.292C213.871 22.664 213.391 22.85 212.791 22.85H206.815V20.87H211.999C212.335 20.87 212.503 20.69 212.503 20.33V18.008H212.179C212.059 18.2 211.891 18.398 211.675 18.602C211.459 18.794 211.171 18.956 210.811 19.088C210.451 19.22 209.995 19.286 209.443 19.286C208.711 19.286 208.033 19.112 207.409 18.764C206.797 18.404 206.305 17.894 205.933 17.234C205.561 16.562 205.375 15.758 205.375 14.822ZM210.091 17.306C210.787 17.306 211.369 17.084 211.837 16.64C212.305 16.196 212.539 15.572 212.539 14.768V14.588C212.539 13.772 212.305 13.148 211.837 12.716C211.381 12.272 210.799 12.05 210.091 12.05C209.395 12.05 208.813 12.272 208.345 12.716C207.877 13.148 207.643 13.772 207.643 14.588V14.768C207.643 15.572 207.877 16.196 208.345 16.64C208.813 17.084 209.395 17.306 210.091 17.306Z" fill="#1C1C21"/>
<defs>
<clipPath id="clip0_1_8">
<rect width="16" height="16" fill="white" transform="translate(0 3.5)"/>
</clipPath>
</defs>
</svg>
